<svg width="64" height="64" viewBox="0 0 64 64" fill="none" xmlns="http://www.w3.org/2000/svg">
<g clip-path="url(#clip0_305_111)">
<path d="M26 17C26 16.447 25.552 16 25 16H22V11C22 10.447 21.552 10 21 10H19.677L15.929 0.629C15.776 0.249 15.409 0 15 0C14.591 0 14.224 0.249 14.071 0.629L10.323 10H9C8.448 10 8 10.447 8 11V16H5C4.448 16 4 16.447 4 17V35C4 35.553 4.448 36 5 36H6V62H0V64H7H23H24V63V62V36H25C25.552 36 26 35.553 26 35V17ZM15 3.692L17.523 10H12.477L15 3.692ZM10 12H11H19H20V16H10V12ZM22 62H8V36H22V62ZM24 34H23H7H6V18H9H21H24V34Z" fill="#02123C"/>
<path d="M15 19C11.14 19 8 22.141 8 26C8 29.859 11.14 33 15 33C18.86 33 22 29.859 22 26C22 22.141 18.86 19 15 19ZM15 31C12.243 31 10 28.757 10 26C10 23.243 12.243 21 15 21C17.757 21 20 23.243 20 26C20 28.757 17.757 31 15 31Z" fill="#02123C"/>
<path d="M14 25H12V27H15C15.552 27 16 26.553 16 26V22H14V25Z" fill="#02123C"/>
<path d="M12 38H10V45H12V38Z" fill="#02123C"/>
<path d="M16 38H14V45H16V38Z" fill="#02123C"/>
<path d="M20 38H18V45H20V38Z" fill="#02123C"/>
<path d="M12 47H10V55H12V47Z" fill="#02123C"/>
<path d="M16 47H14V55H16V47Z" fill="#02123C"/>
<path d="M20 47H18V55H20V47Z" fill="#02123C"/>
<path d="M12 57H10V60H12V57Z" fill="#02123C"/>
<path d="M16 57H14V60H16V57Z" fill="#02123C"/>
<path d="M20 57H18V60H20V57Z" fill="#02123C"/>
<path d="M56.12 41.976C56.613 41.914 57 41.51 57 41V37C57 36.447 56.552 36 56 36H53.874L50.755 12.866C50.689 12.37 50.265 12 49.765 12H48.754L46.961 5.726C46.839 5.296 46.446 5 46 5V0H44V5C43.554 5 43.161 5.296 43.039 5.726L41.246 12H40.235C39.735 12 39.311 12.37 39.244 12.866L36.126 36H34C33.448 36 33 36.447 33 37V41C33 41.51 33.387 41.914 33.88 41.976L28.243 62H26V64H29H34.677H38V62H35.738C36.255 57.507 40.209 54 45 54C49.791 54 53.744 57.507 54.262 62H52V64H55.323H61H64V62H61.757L56.12 41.976ZM53.713 56H56L54.828 57.563C54.502 57.01 54.129 56.488 53.713 56ZM54.414 54L56.766 51.648L57.428 54H54.414ZM35.172 57.563L34 56H36.287C35.871 56.488 35.498 57.01 35.172 57.563ZM32.572 54L33.234 51.648L35.586 54H32.572ZM31.87 56.494L33 58H31.446L31.87 56.494ZM54.612 44H35.388L35.951 42H54.05L54.612 44ZM34.825 46H55.176L55.739 48H34.262L34.825 46ZM58.13 56.494L58.554 58H57L58.13 56.494ZM44.754 7H45.245L46.674 12H43.325L44.754 7ZM41.109 14H42H48H48.891L51.856 36H49.9L47.994 17.896C47.941 17.387 47.512 17 47 17H43C42.488 17 42.059 17.387 42.005 17.896L40.1 36H38.144L41.109 14ZM47.889 36H42.111L43.901 19H46.1L47.889 36ZM35 38H37H41H49H53H55V40H54.807H35.193H35V38ZM30.32 62L30.883 60H34.107C33.919 60.645 33.788 61.313 33.724 62H30.32ZM38.455 54.041L34.414 50H55.586L51.545 54.041C49.694 52.762 47.439 52 45 52C42.561 52 40.306 52.762 38.455 54.041ZM56.276 62C56.212 61.313 56.081 60.645 55.893 60H59.117L59.68 62H56.276Z" fill="#02123C"/>
<path d="M64 8H62V10H64V8Z" fill="#02123C"/>
<path d="M60 8H58V10H60V8Z" fill="#02123C"/>
<path d="M64 4H62V6H64V4Z" fill="#02123C"/>
<path d="M60 4H58V6H60V4Z" fill="#02123C"/>
<path d="M56 4H54V6H56V4Z" fill="#02123C"/>
<path d="M64 0H62V2H64V0Z" fill="#02123C"/>
<path d="M60 0H58V2H60V0Z" fill="#02123C"/>
<path d="M56 0H54V2H56V0Z" fill="#02123C"/>
<path d="M52 0H50V2H52V0Z" fill="#02123C"/>
<path d="M64 21H58V23H64V21Z" fill="#02123C"/>
<path d="M2 58H0V60H2V58Z" fill="#02123C"/>
<path d="M2 54H0V56H2V54Z" fill="#02123C"/>
<path d="M2 50H0V52H2V50Z" fill="#02123C"/>
<path d="M2 8H0V10H2V8Z" fill="#02123C"/>
<path d="M2 4H0V6H2V4Z" fill="#02123C"/>
<path d="M6 4H4V6H6V4Z" fill="#02123C"/>
<path d="M2 0H0V2H2V0Z" fill="#02123C"/>
<path d="M6 0H4V2H6V0Z" fill="#02123C"/>
<path d="M10 0H8V2H10V0Z" fill="#02123C"/>
<path d="M31 1H29V5H31V1Z" fill="#02123C"/>
<path d="M31 9H29V13H31V9Z" fill="#02123C"/>
<path d="M36 6H32V8H36V6Z" fill="#02123C"/>
<path d="M28 6H24V8H28V6Z" fill="#02123C"/>
<path d="M64 14H53V16H64V14Z" fill="#02123C"/>
</g>
<defs>
<clipPath id="clip0_305_111">
<rect width="64" height="64" fill="white"/>
</clipPath>
</defs>
</svg>
