<svg width="64" height="64" viewBox="0 0 64 64" fill="none" xmlns="http://www.w3.org/2000/svg">
<path d="M36.6031 36.6002C30.4031 42.8002 30.4031 53.0002 36.6031 59.2002C42.8031 65.4002 53.0031 65.4002 59.2031 59.2002C65.4031 53.0002 65.4031 42.8002 59.2031 36.6002C53.0031 30.4002 43.0031 30.4002 36.6031 36.6002ZM53.6031 45.2002L50.8031 48.0002L53.6031 50.8002C54.4031 51.6002 54.4031 52.8002 53.6031 53.6002C52.8031 54.4002 51.6031 54.4002 50.8031 53.6002L48.0031 50.8002L45.2031 53.6002C44.4031 54.4002 43.2031 54.4002 42.4031 53.6002C41.6031 52.8002 41.6031 51.6002 42.4031 50.8002L45.2031 48.0002L42.4031 45.2002C41.6031 44.4002 41.6031 43.2002 42.4031 42.4002C43.2031 41.6002 44.4031 41.6002 45.2031 42.4002L48.0031 45.2002L50.8031 42.4002C51.6031 41.6002 52.8031 41.6002 53.6031 42.4002C54.4031 43.2002 54.4031 44.4002 53.6031 45.2002Z" fill="#02123C"/>
<path d="M16.8 44L19.2 39.4C20.2 37.4 22.2 36 24.6 36H31.6C31.8 36 32 36 32 36C35.6 31.2 41.4 28 48 28C50.4 28 52.6 28.4 54.8 29.2C54 28 53 26.8 52 26H54C55.2 26 56 25.2 56 24C56 22.8 55.2 22 54 22H48.4L46 16C44.4 12.4 40.8 10 36.8 10H19.2C15.2 10 11.6 12.4 10 16L7.4 22H2C0.8 22 0 22.8 0 24C0 25.2 0.8 26 2 26H4C1.6 27.8 0 30.8 0 34V42C0 43.8 0.8 45.4 2 46.4V50C2 53.4 4.6 56 8 56H12C15.4 56 18 53.4 18 50V48H28C28 46.6 28.2 45.2 28.4 44H16.8ZM14 38H8C6.8 38 6 37.2 6 36C6 34.8 6.8 34 8 34H14C15.2 34 16 34.8 16 36C16 37.2 15.2 38 14 38ZM11 24L13.8 17.6C14.8 15.4 16.8 14 19.2 14H36.6C39 14 41.2 15.4 42.2 17.6L45 24H11Z" fill="#02123C"/>
</svg>
