<svg width="68" height="68" viewBox="0 0 68 68" fill="none" xmlns="http://www.w3.org/2000/svg">
<path d="M44.6953 8.50001C44.1926 9.39587 43.831 10.364 43.6235 11.3701C43.3851 12.4899 43.4827 13.6552 43.9043 14.7196C44.3258 15.7841 45.0524 16.7003 45.9929 17.3533C46.9973 18.0213 48.0649 18.5889 49.1804 19.048C49.5832 19.2168 50.0172 19.2986 50.4538 19.288C50.8905 19.2774 51.32 19.1747 51.7142 18.9867C52.1084 18.7986 52.4584 18.5294 52.7414 18.1966C53.0243 17.8639 53.2338 17.4751 53.356 17.0558L54.6031 12.8204C54.999 11.4756 54.861 10.0299 54.2178 8.78427C53.5745 7.53867 52.4757 6.58911 51.15 6.13329C48.7129 5.29391 45.9783 6.25946 44.6953 8.50001Z" fill="#02123C"/>
<path d="M55.3195 58.865L47.218 39.1875L49.5196 26.5358C49.7173 25.4608 49.5577 24.3507 49.0654 23.3749C48.2101 21.6961 46.368 19.4715 42.5669 19.2935C42.257 19.2613 41.9441 19.272 41.6372 19.3254C41.0981 19.4179 40.5847 19.6234 40.1308 19.9286C39.6768 20.2337 39.2926 20.6315 39.0035 21.0958L29.9723 35.3068C29.7809 35.6079 29.6715 35.9537 29.6547 36.3101C29.6379 36.6664 29.7144 37.021 29.8766 37.3388L26.2017 42.5928L20.1069 38.3057C19.782 38.077 19.4152 37.9146 19.0275 37.8277C18.6398 37.7408 18.2388 37.7311 17.8474 37.7991C17.4559 37.8672 17.0817 38.0117 16.7461 38.2244C16.4105 38.4371 16.1201 38.7138 15.8915 39.0388L10.1513 47.1975C9.69498 47.8455 9.37078 48.5772 9.19722 49.3506C9.02367 50.124 9.00417 50.924 9.13984 51.7049C9.2755 52.4858 9.56367 53.2324 9.98789 53.902C10.4121 54.5715 10.9641 55.1509 11.6123 55.6071L13.044 56.6152C12.8016 57.2935 12.7394 58.0232 12.8637 58.7327C12.988 59.4423 13.2944 60.1074 13.753 60.663C14.2115 61.2185 14.8065 61.6455 15.4796 61.902C16.1527 62.1586 16.8809 62.2359 17.5929 62.1265C18.3049 62.0171 18.9763 61.7246 19.5413 61.2778C20.1063 60.8309 20.5456 60.245 20.8162 59.5774C21.0867 58.9098 21.1793 58.1834 21.0848 57.4692C20.9902 56.7551 20.7119 56.0778 20.2769 55.5036L32.2819 38.3827C32.7267 38.2545 33.1148 37.9792 33.3829 37.6018L40.7593 27.2424L38.7565 36.0372C38.4921 37.1983 38.6787 38.4165 39.2784 39.4452L52.132 61.4841C52.2537 61.6933 52.4281 61.8669 52.6379 61.9876C52.8476 62.1083 53.0853 62.1719 53.3273 62.1721H57.6398C57.7594 62.1719 57.877 62.1414 57.9816 62.0833C58.0862 62.0253 58.1743 61.9417 58.2377 61.8403C58.3012 61.7389 58.3379 61.623 58.3443 61.5036C58.3507 61.3841 58.3268 61.265 58.2746 61.1574C58.0006 60.5673 57.5894 60.0513 57.0753 59.6525C56.5612 59.2538 55.9592 58.9837 55.3195 58.865ZM19.0617 58.0057C19.0688 58.2864 19.0196 58.5656 18.9171 58.8269C18.8145 59.0882 18.6608 59.3264 18.4648 59.5274C18.2688 59.7283 18.0346 59.8881 17.7759 59.9971C17.5172 60.1062 17.2393 60.1623 16.9586 60.1623C16.6779 60.1623 16.4 60.1062 16.1414 59.9971C15.8827 59.8881 15.6485 59.7283 15.4525 59.5274C15.2565 59.3264 15.1027 59.0882 15.0002 58.8269C14.8977 58.5656 14.8485 58.2864 14.8555 58.0057C14.8555 57.9686 14.8555 57.9314 14.8555 57.8955C14.8845 57.3744 15.1065 56.8827 15.4782 56.5164C15.85 56.15 16.3448 55.9353 16.8663 55.9139C16.8969 55.9139 16.9274 55.9139 16.9593 55.9139C17.4054 55.9146 17.84 56.0563 18.2009 56.3187C18.5617 56.581 18.8305 56.9507 18.9687 57.3749C19.0335 57.5789 19.0662 57.7917 19.0657 58.0057H19.0617Z" fill="#02123C"/>
<path d="M39.7005 43.4988C39.6251 43.3808 39.5168 43.2876 39.389 43.2307C39.2611 43.1738 39.1194 43.1557 38.9814 43.1786C38.8433 43.2015 38.715 43.2645 38.6124 43.3596C38.5098 43.4548 38.4374 43.578 38.4042 43.7139C37.1438 49.0092 33.4795 54.323 31.3652 56.6299C31.0628 56.9639 30.884 57.3913 30.8586 57.8411C30.8332 58.2909 30.9628 58.7358 31.2257 59.1016L33.024 61.625C33.1424 61.7921 33.2991 61.9283 33.4809 62.0223C33.6628 62.1164 33.8645 62.1655 34.0692 62.1656H35.5939C35.6647 62.1653 35.7346 62.1501 35.799 62.121C35.8635 62.0918 35.9211 62.0495 35.9681 61.9966C36.0151 61.9437 36.0504 61.8815 36.0718 61.814C36.0931 61.7466 36.1 61.6754 36.092 61.6051C35.9704 60.6064 35.6608 59.6398 35.1795 58.7563C39.059 54.6949 41.1481 50.7211 42.034 48.7542C42.1624 48.4682 42.2175 48.1548 42.1943 47.8422C42.1711 47.5296 42.0704 47.2277 41.9012 46.9638L39.7005 43.4988Z" fill="#02123C"/>
<path d="M51.189 30.4831C51.1261 30.421 51.0475 30.3771 50.9617 30.356C50.8758 30.3349 50.7859 30.3374 50.7013 30.3632C50.6168 30.3891 50.5408 30.4374 50.4815 30.5029C50.4221 30.5684 50.3816 30.6488 50.3642 30.7354L49.6709 34.2032C49.6449 34.3343 49.6536 34.47 49.6962 34.5968C49.7389 34.7235 49.8139 34.8369 49.914 34.9257L55.9251 40.27C56.2786 40.5827 56.7402 40.7453 57.2116 40.7233C57.6831 40.7013 58.1275 40.4964 58.4504 40.1521C58.7732 39.8078 58.9492 39.3512 58.9409 38.8792C58.9326 38.4073 58.7408 37.9572 58.406 37.6244L51.189 30.4831Z" fill="#02123C"/>
</svg>
