<svg width="64" height="64" viewBox="0 0 64 64" fill="none" xmlns="http://www.w3.org/2000/svg">
<path d="M36 37C36 36.5 36 36 35.9 35.5C35.9 35.4 35.9 35.4 35.9 35.3C35.8 34.8 35.7 34.4 35.6 33.9C34.2 28.8 29.6 25 24 25C18.4 25 13.8 28.8 12.4 33.9C12.3 34.4 12.2 34.8 12.1 35.3C12.1 35.4 12.1 35.4 12.1 35.5C12 36 12 36.5 12 37C12 37.3 12 37.6 12 38C12 38.3 12.1 38.5 12.1 38.8C12.1 38.8 12.1 38.8 12.1 38.9C13 44.6 18 49 24 49C30 49 35 44.6 35.8 38.8C35.8 38.8 35.8 38.8 35.8 38.7C35.8 38.4 35.9 38.2 35.9 37.9C36 37.6 36 37.3 36 37ZM34 37.7C34 37.8 34 37.9 34 38C33.3 38.5 32.2 38.9 30.9 39.2C31 38.6 31 37.8 31 37C31 35.8 30.9 34.7 30.7 33.7C31.9 34 33 34.4 33.7 34.8C33.9 35.5 34 36.3 34 37C34 37.3 34 37.5 34 37.7ZM14 37.7C14 37.5 14 37.2 14 37C14 36.3 14.1 35.5 14.3 34.8C15 34.3 16.1 34 17.3 33.7C17.1 34.7 17 35.8 17 37C17 37.8 17 38.6 17.1 39.3C15.8 39 14.8 38.6 14 38.1C14.1 38 14 37.9 14 37.7ZM19 37C19 35.7 19.1 34.4 19.4 33.3C20.5 33.2 21.7 33.1 23 33V40C21.6 40 20.4 39.9 19.2 39.7C19.1 38.8 19 37.9 19 37ZM25 27.2C26.2 27.7 27.3 29.2 28 31.2C26.9 31.1 25.9 31 25 31V27.2ZM23 27.2V31C22.1 31 21 31.1 20 31.2C20.7 29.2 21.8 27.7 23 27.2ZM23 42V46.8C21.6 46.2 20.3 44.3 19.6 41.8C20.8 41.9 22 42 23 42ZM25 46.8V42C26 42 27.2 41.9 28.4 41.8C27.7 44.3 26.4 46.2 25 46.8ZM25 40V33C26.3 33 27.5 33.1 28.6 33.3C28.8 34.5 29 35.7 29 37C29 37.9 28.9 38.8 28.8 39.7C27.6 39.9 26.4 39.9 25 40ZM32.7 32.1C31.9 31.8 31.1 31.6 30.2 31.5C29.8 30.3 29.4 29.2 28.8 28.2C30.5 29.2 31.8 30.5 32.7 32.1ZM19.2 28.2C18.6 29.1 18.1 30.2 17.8 31.5C16.9 31.7 16.1 31.9 15.3 32.1C16.2 30.5 17.5 29.2 19.2 28.2ZM14.7 40.6C15.6 40.9 16.5 41.2 17.5 41.4C17.9 43.1 18.5 44.5 19.2 45.7C17.1 44.6 15.6 42.8 14.7 40.6ZM28.8 45.8C29.5 44.6 30.1 43.1 30.5 41.5C31.5 41.3 32.4 41 33.3 40.7C32.4 42.8 30.9 44.6 28.8 45.8Z" fill="#02123C"/>
<path d="M6 17V61C6 61.6 6.4 62 7 62H39H55C56.7 62 58 60.7 58 59V5C58 3.3 56.7 2 55 2H33C31.3 2 30 3.3 30 5V16H7C6.4 16 6 16.4 6 17ZM39 16V15.8L44.2 14.9L47.2 14.4L49.7 14L51.6 15.9L49.7 17.8L47.2 17.4L44.2 16.9L40.5 16.3H40.4C40.2 16.2 40.1 16.1 39.9 16.1C39.8 16.1 39.8 16.1 39.7 16C39.5 16 39.2 16 39 16ZM36 16V14.4L37 15.4V16H36ZM45 12.8V9.6C45.6 10.5 46 11.6 46 12.7L45.4 12.8H45ZM45 19.2L46 19.4C46 20.5 45.6 21.6 45 22.5V19.2ZM55 60H41.8C41.8 59.9 41.8 59.8 41.9 59.7C41.9 59.6 41.9 59.6 41.9 59.5C41.9 59.3 42 59.1 42 58.9V55.9H56V58.9C56 59.6 55.6 60 55 60ZM32 5C32 4.4 32.4 4 33 4H55C55.6 4 56 4.4 56 5V42H55V44H56V54H42V19C42 18.9 42 18.8 42 18.7L43 18.9V25C43 25.4 43.2 25.8 43.6 25.9C43.7 26 43.9 26 44 26C44.3 26 44.5 25.9 44.7 25.7L45.7 24.7C47.1 23.3 47.9 21.5 48 19.6L49.4 19.8C49.5 19.8 49.6 19.8 49.7 19.8C50.2 19.8 50.7 19.6 51.1 19.2L53 17.3C53.8 16.5 53.8 15.3 53 14.5L51.1 12.6C50.6 12.1 50 11.9 49.4 12L48 12.3C47.9 10.4 47.1 8.6 45.7 7.2L44.7 6.3C44.4 6 44 5.9 43.6 6.1C43.2 6.3 43 6.6 43 7V13.2L38.3 14L35.7 11.4C35.4 11.1 35 11 34.6 11.2C34.2 11.2 34 11.6 34 12V16H32V5ZM8 18H31H35H38H39C39.1 18 39.2 18 39.3 18.1C39.3 18.1 39.4 18.1 39.4 18.2C39.7 18.4 39.9 18.7 39.9 19.1V59.1C39.9 59.7 39.5 60.1 38.9 60.1H8V18Z" fill="#02123C"/>
<path d="M31 56H17V58H31V56Z" fill="#02123C"/>
<path d="M53 42H51V44H53V42Z" fill="#02123C"/>
<path d="M49 42H47V44H49V42Z" fill="#02123C"/>
<path d="M45 42H43V44H45V42Z" fill="#02123C"/>
<path d="M53 29H51V40H53V29Z" fill="#02123C"/>
<path d="M49 29H47V40H49V29Z" fill="#02123C"/>
<path d="M45 35H43V40H45V35Z" fill="#02123C"/>
<path d="M29 52H19V54H29V52Z" fill="#02123C"/>
<path d="M31 20H17V22H31V20Z" fill="#02123C"/>
</svg>
