<svg width="395" height="395" viewBox="0 0 395 395" fill="none" xmlns="http://www.w3.org/2000/svg">
<path d="M117.233 248.407C117.317 248.666 117.414 248.919 117.5 249.176C117.411 248.921 117.319 248.666 117.233 248.407ZM208.008 301.501C208.134 301.497 208.26 301.473 208.379 301.43C208.11 301.464 207.839 301.483 207.568 301.515L208.008 301.501ZM112.654 217.702C112.645 215.46 112.624 213.218 112.589 210.976C112.578 213.262 112.6 215.503 112.654 217.702ZM281.358 206.113C281.293 210.322 281.213 214.622 281.213 218.985C281.213 227.281 280.25 234.944 278.505 241.999C281.36 231.096 282.16 219.541 281.358 206.113Z" fill="#002738"/>
<path d="M195.897 3.25375C87.7145 3.25375 0.00195312 90.9201 0.00195312 199.104C0.00195312 271.447 39.1968 334.596 97.4965 368.522C97.6591 368.071 97.8122 367.612 97.9812 367.161C104.506 349.585 115.248 335.538 128.526 325.047C137.184 318.147 147.119 312.626 158.077 308.692C135.32 288.863 134.648 283.453 142.459 284.184C135.193 278.544 129.031 271.611 124.282 263.734C124.435 263.984 124.568 264.239 124.724 264.491C50.2318 192.665 105.346 58.432 195.897 105.923L195.987 105.968C258.225 73.2469 305.41 128.473 304.142 188.078C303.781 215.412 293.297 243.504 269.509 263.992C269.679 263.688 269.829 263.382 269.998 263.079C264.802 271.904 258.04 279.22 250.255 285.053C254.184 286.335 252.569 292.697 239.369 308.776H239.267C249.986 312.652 259.719 318.045 268.23 324.768C281.357 335.038 292.042 348.751 298.67 365.9C354.548 331.401 391.793 269.621 391.793 199.102C391.791 90.9201 304.08 3.25375 195.897 3.25375Z" fill="#002738"/>
<path d="M207.569 301.515C207.84 301.483 208.111 301.464 208.38 301.43C212.45 300.216 242.41 282.494 250.256 285.055C258.041 279.222 264.803 271.906 269.999 263.08C273.835 256.109 276.621 249.193 278.505 241.999C280.253 234.944 281.214 227.283 281.214 218.985C281.214 214.622 281.294 210.321 281.359 206.113C281.053 200.956 280.516 195.526 279.77 189.749C242.85 192.008 216.64 178.993 195.899 158.117C166.888 177.911 139.232 189.342 113.339 189.749C112.924 197.27 112.628 204.315 112.591 210.976C112.625 213.19 112.65 215.433 112.657 217.702C112.942 228.92 114.192 239.024 117.234 248.409C117.321 248.667 117.412 248.921 117.501 249.177C117.801 250.069 118.12 250.95 118.453 251.829C118.879 252.929 119.32 254.013 119.787 255.078C119.843 255.203 119.894 255.333 119.952 255.459C120.465 256.61 121.005 257.735 121.567 258.843C121.657 259.022 121.745 259.203 121.836 259.38C122.294 260.267 122.775 261.129 123.261 261.987C123.596 262.57 123.929 263.155 124.285 263.736C129.034 271.613 135.196 278.546 142.462 284.186C154.582 285.319 187.133 301.242 189.302 301.049C196.696 302.023 200.197 301.74 207.569 301.515ZM268.228 324.769C281.742 335.439 292.168 349.444 298.626 365.925L298.666 365.9C292.04 348.752 281.356 335.039 268.228 324.769ZM128.525 325.048C115.247 335.54 104.507 349.586 97.9805 367.162C104.34 350.284 114.841 335.953 128.525 325.048Z" fill="#FCE9EA"/>
<path d="M268.228 324.769C259.717 318.047 249.984 312.652 239.265 308.778L158.119 308.732L158.077 308.695C147.119 312.63 137.184 318.15 128.525 325.05C114.843 335.956 104.34 350.286 97.9807 367.164C97.8117 367.613 97.6587 368.072 97.4961 368.525C126.413 385.355 160.027 395 195.896 395C233.572 395 268.757 384.357 298.626 365.928C292.168 349.443 281.742 335.439 268.228 324.769Z" fill="#B0C11D"/>
<path d="M239.264 308.776H239.366C252.566 292.697 254.181 286.335 250.253 285.053C242.407 282.494 212.447 300.216 208.377 301.429C208.258 301.472 208.132 301.495 208.005 301.499L207.567 301.513C200.196 301.74 196.696 302.022 189.298 301.048C187.128 301.241 154.578 285.318 142.457 284.184C134.645 283.453 135.317 288.865 158.075 308.692L158.117 308.729L239.264 308.776Z" fill="#FF5947"/>
<path d="M121.833 259.38C121.741 259.203 121.654 259.022 121.564 258.843C120.995 257.73 120.457 256.601 119.949 255.459L119.784 255.078C118.936 253.146 118.173 251.177 117.498 249.177C117.412 248.921 117.315 248.667 117.231 248.409C114.189 239.024 112.939 228.92 112.654 217.702C112.597 215.46 112.575 213.218 112.588 210.976C112.625 204.315 112.92 197.27 113.336 189.749C139.229 189.343 166.885 177.909 195.896 158.117V105.923C105.346 58.432 50.2313 192.665 124.723 264.491C124.565 264.241 124.435 263.986 124.282 263.734C123.926 263.155 123.593 262.57 123.258 261.985C122.764 261.123 122.286 260.254 121.833 259.38ZM269.508 263.994C293.297 243.504 303.78 215.414 304.142 188.08C303.566 215.073 293.061 242.963 269.508 263.994Z" fill="#FECF77"/>
<path d="M195.896 158.117C216.638 178.995 242.847 192.01 279.767 189.749C280.513 195.526 281.05 200.956 281.356 206.113C282.158 219.541 281.358 231.096 278.503 241.999C276.618 249.193 273.832 256.109 269.996 263.08C269.828 263.383 269.679 263.689 269.506 263.994C293.057 242.965 303.565 215.073 304.14 188.08C305.408 128.473 258.223 73.2485 195.985 105.969L195.895 105.925V158.117H195.896Z" fill="#FF9F31"/>
</svg>
