<svg width="64" height="64" viewBox="0 0 64 64" fill="none" xmlns="http://www.w3.org/2000/svg">
<path d="M53.706 9.292L44.708 0.294C44.527 0.112 44.277 0 44 0H8C5.243 0 3 2.243 3 5V59C3 61.757 5.243 64 8 64H40H56C58.757 64 61 61.757 61 59V49C61 46.243 58.757 44 56 44H54V10C54 9.723 53.888 9.473 53.706 9.292ZM50 44H46V43C46 42.448 46.449 42 47 42H49C49.551 42 50 42.448 50 43V44ZM52 46V62H44V46H52ZM45 3.414L50.586 9H45V3.414ZM5 59V5C5 3.346 6.346 2 8 2H43V10C43 10.553 43.448 11 44 11H52V43C52 41.346 50.654 40 49 40H47C45.346 40 44 41.346 44 43V44H40C37.243 44 35 46.243 35 49V59C35 60.13 35.391 61.162 36.026 62H8C6.346 62 5 60.654 5 59ZM37 59V49C37 47.346 38.346 46 40 46H42V62H40C38.346 62 37 60.654 37 59ZM59 49V59C59 60.654 57.654 62 56 62H54V46H56C57.654 46 59 47.346 59 49Z" fill="#02123C"/>
<path d="M39 24H25V26H39V24Z" fill="#02123C"/>
<path d="M38 5H18V7H38V5Z" fill="#02123C"/>
<path d="M41 9H15V11H41V9Z" fill="#02123C"/>
<path d="M21 29H12V21H17V19H11C10.448 19 10 19.447 10 20V30C10 30.553 10.448 31 11 31H22C22.552 31 23 30.553 23 30V24H21V29Z" fill="#02123C"/>
<path d="M14.707 23.293L13.293 24.707L15.293 26.707C15.488 26.902 15.744 27 16 27C16.256 27 16.512 26.902 16.707 26.707L22.707 20.707L21.293 19.293L16 24.586L14.707 23.293Z" fill="#02123C"/>
<path d="M39 38H25V40H39V38Z" fill="#02123C"/>
<path d="M21 43H12V35H17V33H11C10.448 33 10 33.447 10 34V44C10 44.553 10.448 45 11 45H22C22.552 45 23 44.553 23 44V38H21V43Z" fill="#02123C"/>
<path d="M14.707 37.293L13.293 38.707L15.293 40.707C15.488 40.902 15.744 41 16 41C16.256 41 16.512 40.902 16.707 40.707L22.707 34.707L21.293 33.293L16 38.586L14.707 37.293Z" fill="#02123C"/>
<path d="M33 52H25V54H33V52Z" fill="#02123C"/>
<path d="M21 57H12V49H17V47H11C10.448 47 10 47.447 10 48V58C10 58.553 10.448 59 11 59H22C22.552 59 23 58.553 23 58V52H21V57Z" fill="#02123C"/>
<path d="M14.707 51.293L13.293 52.707L15.293 54.707C15.488 54.902 15.744 55 16 55C16.256 55 16.512 54.902 16.707 54.707L22.707 48.707L21.293 47.293L16 52.586L14.707 51.293Z" fill="#02123C"/>
<path d="M17 13H15V15H17V13Z" fill="#02123C"/>
<path d="M21 13H19V15H21V13Z" fill="#02123C"/>
<path d="M25 13H23V15H25V13Z" fill="#02123C"/>
<path d="M29 13H27V15H29V13Z" fill="#02123C"/>
<path d="M33 13H31V15H33V13Z" fill="#02123C"/>
<path d="M37 13H35V15H37V13Z" fill="#02123C"/>
<path d="M41 13H39V15H41V13Z" fill="#02123C"/>
</svg>
