<svg width="64" height="64" viewBox="0 0 64 64" fill="none" xmlns="http://www.w3.org/2000/svg">
<path d="M63.3176 16.5229C62.4486 14.1749 59.8526 12.7689 57.3896 13.3939L53.9476 11.2949C52.6476 10.5079 51.0766 10.3539 49.6386 10.8709L37.0466 15.4529L26.7066 0.841915C26.4466 0.474915 25.9696 0.326915 25.5486 0.479915L19.9186 2.52992C19.3986 2.71892 19.1316 3.29192 19.3206 3.81092L25.1286 19.7879L12.6086 24.3439L5.8836 16.8219C5.6126 16.5179 5.1816 16.4079 4.7966 16.5489L1.0376 17.9169C0.517603 18.1049 0.250603 18.6799 0.439603 19.1979L5.9106 34.2319C6.0546 34.6279 6.4306 34.8899 6.8496 34.8899C6.8536 34.8899 6.8576 34.8899 6.8626 34.8899L28.0526 34.6299C28.1646 34.6289 28.2776 34.6079 28.3826 34.5689L30.2596 33.8839L35.7326 48.9199C35.8796 49.3259 36.2636 49.5789 36.6716 49.5789C36.7846 49.5789 36.9006 49.5589 37.0136 49.5179L42.6526 47.4649C43.0766 47.3109 43.3446 46.8919 43.3066 46.4429L41.9116 29.6459L60.3316 22.9379C62.2986 22.2219 63.6196 20.3299 63.6196 18.2289C63.6206 17.6609 63.5206 17.0899 63.3176 16.5229ZM21.5416 4.06792L25.5156 2.62092L35.0996 16.1609L27.0076 19.1049L21.5416 4.06792ZM5.3956 26.9689L2.6606 19.4549L4.8446 18.6609L10.5856 25.0809L5.3956 26.9689ZM37.2706 47.2969L30.4296 28.5029L39.5356 25.1889L41.2516 45.8489L37.2706 47.2969ZM59.6486 21.0609L41.7406 27.5819L41.4196 23.7189C41.3946 23.4079 41.2256 23.1269 40.9626 22.9589C40.6996 22.7909 40.3726 22.7569 40.0816 22.8609L28.8056 26.9649C28.5566 27.0559 28.3536 27.2419 28.2416 27.4819C28.1296 27.7229 28.1176 27.9979 28.2086 28.2469L29.5766 32.0049L27.8586 32.6319L7.5476 32.8819L6.0816 28.8489L50.3196 12.7519C51.1846 12.4399 52.1306 12.5329 52.9096 13.0039L53.8676 13.5879L50.9316 14.6569L51.6156 16.5369L56.0536 14.9219L56.7306 15.3349C56.9876 15.4929 57.3046 15.5239 57.5856 15.4239C59.1776 14.8569 60.8886 15.7179 61.4386 17.2069C61.5596 17.5469 61.6216 17.8909 61.6216 18.2309C61.6206 19.4939 60.8276 20.6309 59.6486 21.0609Z" fill="#02123C"/>
<path d="M46.2341 16.3683L44.3555 17.0515L45.0391 18.9311L46.9177 18.2479L46.2341 16.3683Z" fill="#02123C"/>
<path d="M42.4724 17.7364L40.5938 18.4197L41.2774 20.2993L43.156 19.616L42.4724 17.7364Z" fill="#02123C"/>
<path d="M38.7146 19.1051L36.8359 19.7883L37.5195 21.6679L39.3982 20.9847L38.7146 19.1051Z" fill="#02123C"/>
<path d="M34.9568 20.473L33.0781 21.1562L33.7617 23.0359L35.6404 22.3526L34.9568 20.473Z" fill="#02123C"/>
<path d="M31.1951 21.8412L29.3164 22.5244L30 24.404L31.8787 23.7208L31.1951 21.8412Z" fill="#02123C"/>
<path d="M27.4373 23.2091L25.5586 23.8923L26.2422 25.7719L28.1209 25.0887L27.4373 23.2091Z" fill="#02123C"/>
<path d="M23.6794 24.5772L21.8008 25.2605L22.4844 27.1401L24.363 26.4568L23.6794 24.5772Z" fill="#02123C"/>
<path d="M19.9222 25.9419L18.043 26.6265L18.7276 28.5057L20.6068 27.8211L19.9222 25.9419Z" fill="#02123C"/>
<path d="M16.1644 27.31L14.2852 27.9946L14.9698 29.8738L16.849 29.1892L16.1644 27.31Z" fill="#02123C"/>
<path d="M19 44H25.184C25.598 45.161 26.698 46 28 46C29.654 46 31 44.654 31 43C31 41.346 29.654 40 28 40C26.698 40 25.598 40.839 25.184 42H19C15.691 42 13 44.691 13 48C13 51.309 15.691 54 19 54H36V52H19C16.794 52 15 50.206 15 48C15 45.794 16.794 44 19 44ZM28 42C28.552 42 29 42.449 29 43C29 43.551 28.552 44 28 44C27.448 44 27 43.551 27 43C27 42.449 27.448 42 28 42Z" fill="#02123C"/>
<path d="M40 52H38V54H40V52Z" fill="#02123C"/>
<path d="M50.5 52H42V54H50.5C51.879 54 53 55.122 53 56.5C53 57.878 51.879 59 50.5 59H19V61H50.5C52.981 61 55 58.981 55 56.5C55 54.019 52.981 52 50.5 52Z" fill="#02123C"/>
<path d="M5 57C3.346 57 2 58.346 2 60C2 61.654 3.346 63 5 63C6.302 63 7.402 62.161 7.816 61H17V59H7.816C7.402 57.839 6.302 57 5 57ZM5 61C4.448 61 4 60.551 4 60C4 59.449 4.448 59 5 59C5.552 59 6 59.449 6 60C6 60.551 5.552 61 5 61Z" fill="#02123C"/>
</svg>
